<?xml version="1.0" standalone="no"?>
<!DOCTYPE svg PUBLIC "-//W3C//DTD SVG 20010904//EN"
 "http://www.w3.org/TR/2001/REC-SVG-20010904/DTD/svg10.dtd">
<svg version="1.0" xmlns="http://www.w3.org/2000/svg"
 width="464.000000pt" height="464.000000pt" viewBox="0 0 464.000000 464.000000"
 preserveAspectRatio="xMidYMid meet">
<metadata>
Created by potrace 1.14, written by Peter Selinger 2001-2017
</metadata>
<g transform="translate(0.000000,464.000000) scale(0.100000,-0.100000)"
fill="#000000" stroke="none">
<path d="M2105 4620 c-146 -18 -174 -22 -245 -37 -95 -19 -87 -17 -140 -32
-454 -124 -867 -385 -1165 -737 -88 -105 -99 -119 -96 -123 1 -2 -1 -7 -6 -10
-27 -18 -125 -172 -185 -291 -18 -36 -36 -66 -40 -68 -5 -2 -8 -11 -8 -21 0
-9 -4 -21 -9 -26 -5 -6 -16 -28 -24 -50 -8 -22 -26 -68 -40 -102 -14 -35 -24
-63 -22 -63 3 0 -4 -20 -15 -45 -11 -25 -20 -47 -20 -50 0 -3 0 -6 -1 -7 0 -2
-2 -14 -5 -27 -2 -13 -13 -58 -24 -100 -38 -151 -54 -297 -54 -506 0 -110 3
-225 7 -255 4 -30 10 -75 13 -100 19 -157 105 -448 174 -592 15 -31 26 -59 24
-61 -3 -2 2 -10 11 -17 8 -7 15 -18 15 -24 0 -21 155 -277 172 -284 4 -2 8 -8
8 -13 0 -9 66 -96 135 -178 28 -34 205 -210 245 -244 28 -24 124 -96 215 -162
15 -11 39 -27 54 -35 14 -8 28 -17 31 -20 3 -3 25 -16 50 -29 25 -13 53 -31
64 -40 10 -9 19 -14 20 -13 0 2 42 -15 91 -38 120 -56 282 -116 364 -136 9 -2
41 -10 71 -18 30 -8 73 -18 95 -21 22 -4 49 -9 60 -11 11 -2 40 -6 65 -9 25
-3 56 -8 70 -11 44 -9 403 -12 475 -4 117 14 149 18 175 24 14 3 39 7 55 10
201 29 531 154 729 275 37 23 70 41 75 41 5 0 11 3 13 8 2 4 30 25 62 47 33
22 76 54 97 70 20 17 56 46 80 65 52 42 244 234 279 279 14 18 35 45 48 59 13
15 30 39 40 55 9 15 20 27 24 27 4 0 8 4 8 9 0 5 25 46 55 90 53 80 200 361
189 361 -4 0 -1 7 6 15 7 8 9 15 5 15 -4 0 -3 6 3 12 31 38 120 366 138 508 3
30 10 82 14 115 8 65 5 428 -4 485 -3 19 -8 53 -11 75 -3 22 -7 51 -10 65 -3
14 -8 39 -11 55 -30 169 -107 391 -202 580 -55 108 -183 318 -215 349 -7 7
-23 28 -37 46 -52 68 -88 108 -187 205 -139 136 -185 175 -303 256 -36 24 -66
47 -68 52 -2 4 -10 7 -17 7 -7 0 -15 3 -17 8 -3 7 -34 25 -133 77 -33 17 -71
37 -85 45 -14 8 -27 15 -30 15 -3 1 -23 9 -45 19 -73 32 -240 93 -280 102 -5
1 -46 12 -90 24 -44 11 -95 23 -114 26 -18 3 -43 8 -55 10 -11 2 -41 7 -66 10
-25 3 -56 8 -70 10 -44 9 -413 12 -475 4z"/>
</g>
</svg>
